<svg width="91" height="91" viewBox="0 0 91 91" fill="none" xmlns="http://www.w3.org/2000/svg">
	<path fill-rule="evenodd" clip-rule="evenodd" d="M87.8612 43.2934C87.0965 43.8975 85.5261 44.5242 84.8737 44.7035C84.8273 44.7975 84.8148 44.9472 84.8148 45.0882C84.8148 45.2292 84.8291 45.3789 84.8737 45.4729C85.5261 45.6522 87.0947 46.2789 87.8612 46.883C88.0216 45.9499 88.0216 44.2265 87.8612 43.2934ZM2.20879 43.2934C2.9735 43.8975 4.54391 44.5242 5.19632 44.7035C5.27653 44.8689 5.27653 45.3076 5.19632 45.4729C4.54391 45.6522 2.97528 46.2789 2.20879 46.883C2.04837 45.9499 2.04837 44.2265 2.20879 43.2934ZM5.51004 44.8062C5.81664 44.9333 6.24979 45.0238 6.57421 45.0882C6.25157 45.1544 5.81842 45.2449 5.51004 45.3702C5.55995 45.1457 5.55995 45.0325 5.51004 44.8062ZM11.6598 45.0882C12.0466 44.989 13.0163 44.6617 13.314 44.4458C13.1874 44.5921 13.1232 44.8428 13.1161 45.0882C13.1232 45.3337 13.1874 45.5844 13.314 45.7306C13.0181 45.5147 12.0466 45.1892 11.6598 45.0882ZM16.8487 42.4909C18.0466 42.1932 19.4477 43.6398 21.7792 43.2673C20.5368 42.1444 18.1393 42.5622 17.3924 40.9972C16.8541 38.9448 18.2872 37.4006 19.5439 36.7861C19.6259 38.9082 19.7899 39.85 21.5172 41.1957C22.8273 42.0609 24.371 42.5657 24.4851 44.747C24.4922 44.8654 24.494 44.9785 24.494 45.09C24.494 45.2014 24.4922 45.3128 24.4851 45.4329C24.371 47.6142 22.8291 48.119 21.5172 48.9842C19.7917 50.3299 19.6259 51.2717 19.5439 53.3938C18.2872 52.7793 16.8541 51.2351 17.3924 49.1827C18.1393 47.6177 20.5368 48.0355 21.7792 46.9126C19.4459 46.5401 18.0448 47.9867 16.8487 47.689C16.0198 47.4836 13.6348 45.9604 13.6348 45.0865C13.6384 44.2213 16.0234 42.6963 16.8487 42.4909ZM45.0359 23.8795C44.166 23.9021 43.2837 23.977 42.396 24.1058C33.0056 25.4758 26.4904 32.3034 24.6384 40.6351C24.4049 41.6831 24.3496 41.6326 24.9111 42.5501C25.2765 43.1472 25.4958 44.1273 25.494 45.09C25.4958 46.0526 25.2747 47.0327 24.9111 47.6298C24.3496 48.5473 24.4049 48.4968 24.6384 49.5448C26.4904 57.8765 33.0038 64.7041 42.396 66.0741C43.2837 66.2029 44.166 66.2778 45.0359 66.3004C45.9058 66.2778 46.7881 66.2047 47.6758 66.0741C57.0662 64.7041 63.5813 57.8765 65.4334 49.5448C65.6669 48.4968 65.7222 48.5473 65.1607 47.6298C64.7952 47.0327 64.576 46.0526 64.5778 45.09C64.576 44.1273 64.797 43.1472 65.1607 42.5501C65.7222 41.6326 65.6669 41.6831 65.4334 40.6351C63.5813 32.3034 57.068 25.4758 47.6758 24.1058C46.7863 23.9752 45.9058 23.9021 45.0359 23.8795ZM45.0359 70.0502C53.0769 69.8134 61.0109 65.7764 65.7097 58.4231C66.8755 56.5969 68.6473 53.1274 68.9468 50.5231C68.5172 49.8842 67.2177 49.2366 66.5546 48.9999C66.2854 49.5535 65.8202 51.9193 65.5457 52.6748C64.2427 56.2488 62.3781 58.9836 59.6758 61.4974C55.7008 65.1967 50.3692 67.1778 45.0377 67.3519C39.7061 67.1778 34.3746 65.1967 30.3995 61.4974C27.6972 58.9836 25.8345 56.2488 24.5296 52.6748C24.2534 51.9193 23.7881 49.5517 23.5207 48.9999C22.8576 49.2366 21.5582 49.8842 21.1286 50.5231C21.4263 53.1274 23.1981 56.5969 24.3657 58.4231C29.0608 65.7782 36.9931 69.8134 45.0359 70.0502ZM45.0359 90.0908C44.8042 90.0856 44.5724 90.0769 44.3389 90.0682C34.0715 89.6452 24.3692 85.817 16.9931 79.3916C14.1838 76.9439 11.4049 74.3727 9.32466 71.0616C5.92181 65.6459 4.56708 63.9033 2.61165 56.6004C2.10897 55.0267 1.80416 52.5512 1.67582 51.2212C1.64195 50.88 1.56352 49.7345 1.56352 49.7328C0.649079 49.4142 0.609864 49.4577 0.0358887 48.7144C0.782769 47.9119 1.04302 47.8614 1.62591 47.2956C1.46013 45.6609 1.46013 44.5207 1.62591 42.886C1.04302 42.3185 0.782769 42.268 0.0358887 41.4672C0.609864 40.7222 0.649079 40.7674 1.56352 40.4489C1.56352 40.4471 1.64195 39.3016 1.67582 38.9604C1.80416 37.6287 2.10897 35.1549 2.61165 33.5812C4.56708 26.2801 5.92181 24.5375 9.32466 19.12C11.4049 15.8089 14.1821 13.2377 16.9931 10.7901C24.3692 4.3646 34.0698 0.536477 44.3389 0.113451C44.5724 0.104747 44.8042 0.0960429 45.0359 0.0908203C45.2676 0.0960429 45.4993 0.104747 45.7329 0.113451C56.0002 0.536477 65.7026 4.3646 73.0787 10.7901C75.8879 13.2377 78.6669 15.8089 80.7471 19.12C84.15 24.5358 85.5047 26.2784 87.4601 33.5812C87.9628 35.1549 88.2676 37.6304 88.396 38.9604C88.4298 39.3016 88.5083 40.4471 88.5083 40.4489C89.4227 40.7674 89.4619 40.7239 90.0359 41.4672C89.289 42.2698 89.0288 42.3203 88.4459 42.886C88.6116 44.5207 88.6116 45.6609 88.4459 47.2956C89.0288 47.8631 89.289 47.9136 90.0359 48.7144C89.4619 49.4595 89.4227 49.4142 88.5083 49.7328C88.5083 49.7345 88.4298 50.88 88.396 51.2212C88.2676 52.553 87.9628 55.0267 87.4601 56.6004C85.5047 63.9015 84.15 65.6441 80.7471 71.0616C78.6669 74.3727 75.8897 76.9439 73.0787 79.3916C65.7026 85.817 56.002 89.6452 45.7329 90.0682C45.4993 90.0769 45.2658 90.0839 45.0359 90.0908ZM45.0359 89.1246C60.2052 88.6703 74.4387 80.3142 82.0056 67.3188C84.2569 63.5638 86.5403 58.6685 87.3995 53.2911C87.6206 51.9071 87.6972 51.1759 87.7222 49.6179C87.6099 49.6788 87.0519 49.5308 86.7721 49.416C87.5742 53.5365 86.1054 54.2921 83.9557 54.6507C83.3389 55.831 84.8505 56.5969 84.5956 58.639C84.437 59.908 83.4637 60.674 82.5849 61.0448C81.5813 61.4678 81.8737 61.2363 81.4441 62.2547C80.7418 63.9207 79.8398 65.7886 78.8291 67.0072C78.8309 68.7968 77.6509 70.7187 75.7061 71.2862C73.0519 74.9037 67.1642 80.0618 59.6722 83.1501C55.0484 85.0894 50.0519 86.0747 45.0359 86.1774C40.0198 86.0747 35.0234 85.0876 30.3995 83.1501C22.9075 80.0618 17.0181 74.9037 14.3657 71.2862C12.4209 70.7187 11.2409 68.7968 11.2427 67.0072C10.232 65.7886 9.33001 63.9207 8.62769 62.2547C8.1981 61.2363 8.49043 61.4678 7.48687 61.0448C6.60808 60.674 5.63482 59.908 5.47617 58.639C5.22127 56.5987 6.73286 55.831 6.1161 54.6507C3.96459 54.2921 2.49756 53.5365 3.2997 49.416C3.01985 49.5308 2.46191 49.6788 2.34961 49.6179C2.37457 51.1759 2.45122 51.9088 2.67225 53.2911C3.52965 58.6685 5.81485 63.5638 8.06619 67.3188C15.633 80.3142 29.8648 88.6703 45.0359 89.1246ZM45.0359 85.0998C46.2783 84.5689 45.6758 83.6201 45.9289 83.1849C46.6865 83.8116 47.5332 84.5079 49.0056 83.6514C48.5635 83.4599 47.2605 82.8541 46.7471 82.3963C46.0038 81.7313 45.5332 81.0785 45.0341 80.0618C44.535 81.0802 44.0644 81.733 43.3211 82.3963C42.8095 82.8541 41.5047 83.4599 41.0626 83.6514C42.535 84.5097 43.3835 83.8116 44.1393 83.1849C44.3942 83.6201 43.7935 84.5689 45.0359 85.0998ZM45.0359 78.7666C45.8737 80.4674 46.4655 82.0081 49.7097 83.3624C49.084 84.7934 47.5421 84.8161 46.3817 84.1528C46.0466 84.9954 45.9378 85.1782 45.3657 85.6395C51.2266 85.5907 55.6972 84.2677 60.7649 82.109C59.617 82.2326 59.2961 82.2988 58.797 82.1926C59.5047 81.5259 60.9236 79.886 60.5813 78.1608C60.1304 79.2071 59.7899 80.3665 58.4512 81.6703C57.9058 82.2013 56.6883 83.03 55.6259 83.3224C49.2302 85.0006 45.3068 80.3734 45.2498 76.077C45.2284 74.4928 45.6188 72.9435 46.7685 71.7858C47.002 71.5491 47.125 71.4812 47.3211 71.2949C47.7026 70.9972 48.4744 70.5707 48.8541 70.273C47.6509 70.5255 46.3478 70.6786 45.0341 70.7152C43.7204 70.6786 42.4173 70.5237 41.2141 70.273C41.5956 70.5707 42.3674 70.9972 42.7471 71.2949C42.9432 71.4812 43.0662 71.5473 43.2997 71.7858C44.4494 72.9435 44.8398 74.4928 44.8184 76.077C44.7614 80.3734 40.838 85.0023 34.4423 83.3224C33.3799 83.0317 32.1607 82.2013 31.617 81.6703C30.2783 80.3665 29.9378 79.2071 29.4869 78.1608C29.1446 79.886 30.5653 81.5241 31.2712 82.1926C30.7739 82.2971 30.453 82.2326 29.3033 82.109C34.371 84.2677 38.8416 85.5907 44.7026 85.6395C44.1304 85.1782 44.0216 84.9954 43.6865 84.1528C42.5261 84.8161 40.9842 84.7934 40.3585 83.3624C43.6063 82.0081 44.1981 80.4674 45.0359 78.7666ZM45.0359 1.05177C29.8648 1.50613 15.633 9.86219 8.06441 22.8593C5.81307 26.6143 3.52965 31.5096 2.67047 36.8871C2.44944 38.2711 2.37279 39.0022 2.34783 40.5603C2.46013 40.4993 3.01806 40.6473 3.29792 40.7622C2.49578 36.6416 3.96459 35.8861 6.11432 35.5275C6.73108 34.3472 5.21949 33.5812 5.47439 31.5392C5.63304 30.2701 6.6063 29.5042 7.48509 29.1334C8.48865 28.7103 8.19632 28.9419 8.62591 27.9235C9.32822 26.2575 10.2302 24.3895 11.2409 23.171C11.2391 21.3814 12.4191 19.4595 14.3639 18.892C17.0181 15.2745 22.9058 10.1164 30.3977 7.02809C35.0216 5.08879 40.0181 4.10347 45.0341 4.00076C50.0501 4.10347 55.0466 5.09053 59.6705 7.02809C67.1624 10.1164 73.0519 15.2745 75.7043 18.892C77.6491 19.4595 78.8291 21.3814 78.8273 23.171C79.838 24.3895 80.74 26.2575 81.4423 27.9235C81.8719 28.9419 81.5796 28.7103 82.5831 29.1334C83.4619 29.5042 84.4352 30.2701 84.5938 31.5392C84.8487 33.5795 83.3371 34.3472 83.9539 35.5275C86.1054 35.8861 87.5724 36.6416 86.7703 40.7622C87.0501 40.6473 87.6081 40.4993 87.7204 40.5603C87.6954 39.0022 87.6188 38.2693 87.3977 36.8871C86.5403 31.5096 84.2551 26.6143 82.0038 22.8593C74.437 9.86219 60.2052 1.50613 45.0359 1.05177ZM45.0359 5.07834C43.7917 5.6093 44.396 6.55806 44.1428 6.99327C43.3853 6.36657 42.5386 5.67023 41.0662 6.52673C41.5083 6.71822 42.8113 7.32404 43.3247 7.78188C44.068 8.44688 44.5386 9.0997 45.0377 10.1164V11.4115C44.1999 9.71074 43.6081 8.17009 40.3639 6.81571C40.9895 5.38473 42.5314 5.3621 43.6919 6.02536C44.027 5.1828 44.1357 5.00001 44.7079 4.53868C38.8469 4.58743 34.3764 5.91047 29.3086 8.06912C30.4566 7.94552 30.7774 7.87937 31.2765 7.98556C30.5689 8.6523 29.15 10.2922 29.4922 12.0174C29.9432 10.9711 30.2837 9.8117 31.6223 8.50781C32.1678 7.97685 33.3853 7.14821 34.4477 6.85575C40.8434 5.17757 44.7667 9.80474 44.8238 14.1011C44.8452 15.6853 44.4548 17.2347 43.305 18.3906C43.0715 18.6273 42.9485 18.6952 42.7525 18.8815C42.371 19.1792 41.5992 19.6057 41.2195 19.9034C42.4227 19.651 43.7257 19.4978 45.0395 19.4612C46.3532 19.4978 47.6562 19.6527 48.8594 19.9034C48.478 19.6057 47.7061 19.1792 47.3264 18.8815C47.1304 18.6952 47.0074 18.6291 46.7739 18.3906C45.6241 17.2329 45.2337 15.6836 45.2551 14.1011C45.3122 9.80474 49.2355 5.17583 55.6313 6.85575C56.6936 7.14821 57.9111 7.97685 58.4566 8.50781C59.7952 9.8117 60.1357 10.9711 60.5867 12.0174C60.9289 10.2922 59.5083 8.65404 58.8024 7.98556C59.2997 7.88111 59.6206 7.94552 60.7703 8.06912C55.7026 5.91047 51.232 4.58743 45.371 4.53868C45.9432 5.00001 46.0519 5.1828 46.387 6.02536C47.5475 5.3621 49.0894 5.38473 49.715 6.81571C46.4708 8.17009 45.879 9.71074 45.0412 11.4115V10.1164C45.5403 9.09796 46.0109 8.44514 46.7542 7.78188C47.2658 7.32404 48.5706 6.71822 49.0127 6.52673C47.5403 5.66849 46.6919 6.36657 45.9361 6.99327C45.6758 6.55632 46.2783 5.6093 45.0359 5.07834ZM45.0359 20.128C36.9949 20.3647 29.0608 24.4017 24.3621 31.7551C23.1963 33.5812 21.4245 37.0507 21.125 39.655C21.5546 40.2939 22.8541 40.9415 23.5172 41.1783C23.7863 40.6247 24.2516 38.2589 24.5261 37.5033C25.8291 33.9294 27.6936 31.1945 30.396 28.6807C34.371 24.9814 39.7026 23.0004 45.0341 22.8263C50.3657 23.0004 55.6972 24.9814 59.6722 28.6807C62.3746 31.1945 64.2373 33.9294 65.5421 37.5033C65.8184 38.2589 66.2837 40.6264 66.551 41.1783C67.2141 40.9415 68.5136 40.2939 68.9432 39.655C68.6455 37.0507 66.8737 33.5812 65.7061 31.7551C61.0109 24.4 53.0769 20.3647 45.0359 20.128ZM20.6776 50.7895C20.8113 51.6251 21.0626 52.5373 21.2284 53.0474C20.9949 52.6278 20.56 52.3458 20.3585 52.123C20.2819 51.7939 20.5528 51.0419 20.6776 50.7895ZM39.9664 73.9271C42.3514 75.2884 40.9842 80.0026 36.9878 79.9991C31.2997 79.9922 32.3193 71.2949 29.6348 66.5633C28.2587 64.1365 26.0501 62.6185 23.2819 61.4713C24.5439 61.5566 24.8576 61.48 25.0965 61.3373C25.2052 61.2729 22.8006 58.5223 23.0911 57.4151C26.15 63.0381 31.4993 66.5337 33.2462 67.5103C33.8648 67.8567 36.2747 69.0597 37.5261 69.4044C31.7311 69.6115 32.8844 67.4894 31.0448 66.9393C30.9236 68.3564 30.9842 69.7194 31.4851 70.7901C32.0965 72.0974 32.7061 72.1706 34.5243 72.087C34.4245 72.8338 32.9058 75.7845 36.1179 77.5149C37.1874 78.0912 38.4441 77.8945 39.2854 77.313C40.2017 76.6793 40.2819 75.6244 39.9664 73.9271ZM28.56 81.7174C27.9396 81.5189 24.2854 79.3185 23.617 78.8867C22.9004 78.4219 22.4156 78.0999 21.7079 77.5846C20.7721 76.9057 20.2783 76.5262 19.3371 75.6418C22.5439 76.7873 25.3888 75.5478 26.7115 73.1472C26.2052 74.4754 24.8523 75.7637 24.592 76.1101C25.1999 76.8482 25.7222 76.8674 26.4156 76.8952C26.3425 77.7552 25.9236 78.6308 26.3175 79.4455C26.6384 80.255 27.0305 79.926 27.3746 79.6562C27.7132 80.7146 27.9664 81.0941 28.56 81.7174ZM22.355 65.2281C24.2213 66.0532 25.6223 68.5096 24.6277 70.8179C23.617 73.1611 19.4067 73.4779 19.756 70.0276C20.478 71.0425 21.1981 71.6953 22.4797 71.1643C23.0626 70.9224 23.6491 70.1564 23.8291 69.3904C24.5885 66.1525 19.3193 64.2706 17.0822 67.6966C15.8683 69.5541 16.191 71.4934 16.9628 73.3979C14.6063 71.9094 14.9485 67.7558 16.3425 66.3561C17.7239 64.9652 20.1714 64.201 22.355 65.2281ZM11.9361 55.2983C13.8416 53.6793 14.9717 53.124 15.4049 51.2229C15.5742 50.4813 15.6687 49.3707 15.2908 47.924C15.7614 48.3976 16.1892 48.5438 16.7043 48.69C16.4797 50.4256 16.2819 52.459 18.9378 53.8847C19.0965 53.9805 20.2801 54.5323 20.4441 54.5393C20.2034 53.8168 20.3389 53.6845 20.387 52.9568C20.9806 53.8464 21.3728 54.4679 21.7632 55.3905C22.0626 56.0991 22.1785 56.6091 22.387 57.3629C22.8024 59.586 23.4352 59.8715 24.2569 60.9978C21.0822 61.0465 20.6669 59.2204 20.535 56.489C20.1393 57.3664 20.3746 58.5154 19.5938 59.203C18.9022 59.8523 17.8362 60.1918 16.7988 59.9481C15.6919 59.6887 15.1179 58.7086 15.3104 57.9061C15.5938 56.7258 17.1624 55.8815 18.0662 57.9078C18.6099 56.543 17.5065 54.8927 15.7097 54.534C12.9682 53.9874 11.2854 56.1739 11.5421 58.4318C11.6758 59.6156 12.1411 60.9003 13.6829 61.6419C16.5956 63.1094 21.5813 60.2666 26.371 64.0095C28.5724 65.5275 29.9182 67.8428 30.2623 70.0885C31.2195 73.7443 31.289 80.3786 36.7845 80.7686C39.6758 80.974 42.3015 78.8119 42.0537 75.9569C41.7507 72.4839 36.9824 71.5508 36.8398 73.9967C37.4138 73.8122 37.9842 73.229 38.7756 73.7425C39.2676 74.0611 39.5279 74.7627 39.4013 75.459C38.838 78.5333 33.2177 76.3242 35.3033 72.6145C36.1928 71.0338 37.8059 71.3384 38.7079 70.9067C37.3478 70.0311 35.2712 71.4725 33.6616 71.422C32.4744 71.3854 31.5118 70.5028 31.6241 68.3616C32.3924 68.8542 32.9539 69.7281 34.1125 69.9388C35.2997 70.1547 36.4797 69.9632 37.6651 70.0467C45.1108 70.5655 45.9218 79.0243 41.0074 81.78C35.0216 85.1381 29.478 81.1655 29.5813 74.7157C29.8826 72.698 29.0466 66.8279 26.5635 65.1584C27.4797 67.5364 28.6883 67.8358 28.9343 73.6242C28.9985 75.1283 28.7792 76.655 28.8523 78.1347C28.945 80.0235 29.5599 80.8434 30.1678 81.7522C28.7614 81.5154 27.3746 79.8825 27.8612 78.6012L26.9343 79.4543C26.2819 78.2095 27.3603 76.8952 27.6954 75.466C26.8273 76.0596 26.6313 76.8116 25.4726 76.07C25.5207 75.9569 28.9949 72.6615 27.1714 69.1101C27.0751 70.3775 27.1125 71.4812 26.1714 72.8356C23.8951 76.7368 18.6865 76.1466 17.3247 72.651C16.2819 69.9806 17.6116 66.9776 19.9895 66.6068C22.0377 66.2882 23.0983 67.4529 23.2141 68.5792C23.3514 69.9162 22.2302 71.2218 20.8772 70.2904C20.0074 69.6602 20.1018 69.1276 20.8755 68.231C17.9022 68.6036 18.4067 73.7251 22.5796 73.2917C23.2658 73.2203 23.8487 72.8321 24.3585 72.4212C27.8594 69.6045 24.453 62.5855 18.2088 64.5039C14.7899 65.5553 14.781 68.1788 14.6295 70.6786C13.2605 70.4158 11.7275 68.5339 12.0555 66.7339C12.7863 64.8068 13.3657 64.5944 15.9521 63.8249C14.1339 63.9033 11.6812 64.5805 9.72395 61.5671C9.54213 61.2467 9.27475 60.3572 9.19275 60.0299C8.82555 58.5832 10.9075 56.1722 11.9361 55.2983ZM22.576 61.4226C20.9771 61.0796 16.9165 61.682 14.1856 61.0692C12.9289 60.7872 12.0858 59.2065 12.15 57.7372C12.1945 56.7327 12.8291 56.0225 13.5296 55.5385C14.74 54.7029 16.6277 55.2182 17.3086 56.2679C16.289 55.8553 15.0341 56.5482 14.7792 57.7598C14.3425 59.828 15.9093 61.0483 17.8951 60.7558C18.9717 60.5974 19.7952 60.143 20.3336 59.3718C20.6152 60.2649 21.3282 60.9874 22.576 61.4226ZM11.3888 66.1577C10.8398 65.6006 9.56174 63.4576 9.37813 62.4305C9.412 62.4462 11.5332 64.4307 12.5493 64.4969C11.9682 65.2228 11.5154 65.9714 11.3888 66.1577ZM6.75425 55.3818C6.68473 55.2565 6.62591 54.6681 6.6669 53.9804C6.2391 53.9282 6.34427 53.7977 6.21236 53.5487C5.96993 52.7828 5.79881 51.6442 6.12323 50.84C6.66869 49.4873 8.16245 48.4045 9.46726 48.1834C11.2034 47.891 12.1571 48.7144 12.4067 49.6318C12.7257 50.8086 11.9165 52.2222 10.4619 51.9176C9.57778 51.733 9.371 51.3466 9.52608 49.9104C7.59026 49.691 5.2694 52.6435 7.95389 54.6768C7.52965 54.8439 7.0858 54.9658 6.75425 55.3818ZM6.41735 49.0956C4.62591 51.303 5.33179 53.1588 5.74712 53.6323C5.79703 53.6897 5.80951 53.916 5.8309 53.9717C4.50826 53.8186 3.57421 52.6905 3.60273 51.404C3.64551 49.4943 4.47439 48.9529 5.47083 47.7047C4.21236 48.0981 2.89329 49.6005 1.03945 48.7422C2.09471 46.7821 5.9432 45.7149 7.92359 45.5826C11.0662 45.372 13.7043 45.5165 14.7257 48.3314C15.355 51.9959 13.6455 52.9534 11.8291 54.5445C11.0822 55.199 9.98776 56.1374 9.3817 56.8476C8.38526 58.0157 8.33892 58.78 8.42626 60.3589C6.77207 60.6723 5.63125 58.5293 6.39418 56.9625C7.47439 54.7412 9.35318 55.2356 9.92894 54.407C9.61699 54.2311 8.88259 54.4801 8.36566 54.2015C7.26227 53.6079 7.21058 51.8514 8.7596 50.8504C8.86655 52.0272 9.05906 52.593 10.5742 52.6783C12.4726 52.7862 13.4423 51.2317 13.3211 49.785C13.2391 48.798 12.7043 47.9084 11.396 47.5828C9.29614 47.0606 7.49578 48.0285 6.41735 49.0956ZM20.6776 39.3887C20.8113 38.5531 21.0626 37.6409 21.2284 37.1308C20.9949 37.5503 20.56 37.8324 20.3585 38.0552C20.2819 38.3842 20.5528 39.1363 20.6776 39.3887ZM39.9664 16.2511C42.3514 14.8898 40.9842 10.1755 36.9878 10.179C31.2997 10.186 32.3193 18.8833 29.6348 23.6149C28.2587 26.0416 26.0501 27.5596 23.2819 28.7068C24.5439 28.6215 24.8576 28.6999 25.0965 28.8409C25.2052 28.9053 22.8006 31.6558 23.0911 32.763C26.15 27.1401 31.4993 23.6445 33.2462 22.6679C33.8648 22.3214 36.2747 21.1185 37.5261 20.7738C31.7311 20.5667 32.8844 22.6887 31.0448 23.2388C30.9236 21.8218 30.9842 20.4587 31.4851 19.3881C32.0965 18.0807 32.7061 18.0076 34.5243 18.0912C34.4245 17.3443 32.9058 14.3936 36.1179 12.6632C37.1874 12.087 38.4441 12.2854 39.2854 12.8651C40.2017 13.4988 40.2819 14.5538 39.9664 16.2511ZM28.56 8.46081C27.9396 8.65926 24.2854 10.8597 23.617 11.2914C22.9004 11.7562 22.4156 12.0783 21.7079 12.5936C20.7721 13.2725 20.2783 13.652 19.3371 14.5364C22.5439 13.3909 25.3888 14.6304 26.7115 17.031C26.2052 15.7027 24.8523 14.4145 24.592 14.0681C25.1999 13.33 25.7222 13.3108 26.4156 13.283C26.3425 12.423 25.9236 11.5473 26.3175 10.7326C26.6384 9.92312 27.0305 10.2521 27.3746 10.522C27.7132 9.46354 27.9664 9.08403 28.56 8.46081ZM22.355 24.9501C24.2213 24.1249 25.6223 21.6686 24.6277 19.3602C23.617 17.0171 19.4067 16.7002 19.756 20.1506C20.478 19.1357 21.1981 18.4829 22.4797 19.0138C23.0626 19.2558 23.6491 20.0218 23.8291 20.7877C24.5885 24.0257 19.3193 25.9076 17.0822 22.4816C15.8683 20.6241 16.191 18.6848 16.9628 16.7803C14.6063 18.2687 14.9485 22.4224 16.3425 23.822C17.7239 25.2112 20.1714 25.9772 22.355 24.9501ZM11.9361 34.8799C13.8416 36.4989 14.9717 37.0542 15.4049 38.9552C15.5742 39.6968 15.6687 40.8075 15.2908 42.2541C15.7614 41.7806 16.1892 41.6344 16.7043 41.4881C16.4797 39.7525 16.2819 37.7192 18.9378 36.2935C19.0965 36.1977 20.2801 35.6459 20.4441 35.6389C20.2034 36.3613 20.3389 36.4937 20.387 37.2213C20.9806 36.3318 21.3728 35.7103 21.7632 34.7876C22.0626 34.0791 22.1785 33.569 22.387 32.8152C22.8024 30.5922 23.4352 30.3067 24.2569 29.1804C21.0822 29.1316 20.6669 30.9578 20.535 33.6891C20.1393 32.8118 20.3746 31.6628 19.5938 30.9752C18.9022 30.3258 17.8362 29.9864 16.7988 30.2301C15.6919 30.4895 15.1179 31.4696 15.3104 32.2721C15.5938 33.4524 17.1624 34.2967 18.0662 32.2704C18.6099 33.6352 17.5065 35.2855 15.7097 35.6441C12.9682 36.1907 11.2854 34.0042 11.5421 31.7464C11.6758 30.5626 12.1411 29.2778 13.6829 28.5362C16.5956 27.0687 21.5813 29.9115 26.371 26.1687C28.5724 24.6507 29.9182 22.3354 30.2623 20.0897C31.2195 16.4339 31.289 9.79952 36.7845 9.40957C39.6758 9.20415 42.3015 11.3663 42.0537 14.2213C41.7507 17.6943 36.9824 18.6273 36.8398 16.1815C37.4138 16.366 37.9842 16.9492 38.7756 16.4356C39.2676 16.1171 39.5279 15.4155 39.4013 14.7192C38.838 11.6466 33.2177 13.8539 35.3033 17.5637C36.1928 19.1444 37.8059 18.8397 38.7079 19.2715C37.3478 20.1471 35.2712 18.7057 33.6616 18.7562C32.4744 18.7927 31.5118 19.6753 31.6241 21.8166C32.3924 21.3239 32.9539 20.45 34.1125 20.2394C35.2997 20.0235 36.4797 20.215 37.6651 20.1314C45.1108 19.6127 45.9218 11.1539 41.0074 8.39814C35.0216 5.04005 29.478 9.01266 29.5813 15.4625C29.8826 17.4801 29.0466 23.3503 26.5635 25.0197C27.4797 22.6417 28.6883 22.3423 28.9343 16.554C28.9985 15.0499 28.7792 13.5232 28.8523 12.0435C28.945 10.1547 29.5599 9.33471 30.1678 8.42599C28.7614 8.66275 27.3746 10.2957 27.8612 11.5769L26.9343 10.7239C26.2819 11.9686 27.3603 13.283 27.6954 14.7122C26.8273 14.1186 26.6313 13.3665 25.4726 14.1081C25.5207 14.2213 28.9949 17.5167 27.1714 21.068C27.0751 19.8007 27.1125 18.697 26.1714 17.3426C23.8951 13.4414 18.6865 14.0315 17.3247 17.5271C16.2819 20.1976 17.6116 23.2006 19.9895 23.5714C22.0377 23.8899 23.0983 22.7253 23.2141 21.599C23.3514 20.262 22.2302 18.9564 20.8772 19.8877C20.0074 20.5179 20.1018 21.0506 20.8755 21.9471C17.9022 21.5746 18.4067 16.453 22.5796 16.8865C23.2658 16.9579 23.8487 17.3461 24.3585 17.7569C27.8594 20.5736 24.453 27.5927 18.2088 25.6743C14.7899 24.6228 14.781 21.9994 14.6295 19.4995C13.2605 19.7624 11.7275 21.6442 12.0555 23.4443C12.7863 25.3714 13.3657 25.5838 15.9521 26.3532C14.1339 26.2749 11.6812 25.5977 9.72395 28.6111C9.54213 28.9314 9.27475 29.821 9.19275 30.1483C8.82555 31.5949 10.9075 34.006 11.9361 34.8799ZM22.576 28.7538C20.9771 29.0968 16.9165 28.4945 14.1856 29.1072C12.9289 29.3893 12.0858 30.9699 12.15 32.4392C12.1945 33.4437 12.8291 34.154 13.5296 34.6379C14.74 35.4735 16.6277 34.9582 17.3086 33.9085C16.289 34.3211 15.0341 33.6282 14.7792 32.4166C14.3425 30.3485 15.9093 29.1281 17.8951 29.4206C18.9717 29.579 19.7952 30.0334 20.3336 30.8046C20.6152 29.9133 21.3282 29.1891 22.576 28.7538ZM11.3888 24.0205C10.8398 24.5776 9.56174 26.7205 9.37813 27.7476C9.412 27.732 11.5332 25.7474 12.5493 25.6813C11.9682 24.9553 11.5154 24.2068 11.3888 24.0205ZM6.75425 34.7946C6.68473 34.9199 6.62591 35.5083 6.6669 36.196C6.2391 36.2482 6.34427 36.3788 6.21236 36.6277C5.96993 37.3937 5.79881 38.5322 6.12323 39.3365C6.66869 40.6891 8.16245 41.7719 9.46726 41.993C11.2034 42.2854 12.1571 41.462 12.4067 40.5446C12.7257 39.3678 11.9165 37.9542 10.4619 38.2589C9.57778 38.4434 9.371 38.8299 9.52608 40.2661C7.59026 40.4854 5.2694 37.5329 7.95389 35.4996C7.52965 35.3342 7.0858 35.2124 6.75425 34.7946ZM6.41735 41.0825C4.62591 38.8751 5.33179 37.0194 5.74712 36.5459C5.79703 36.4884 5.80951 36.2621 5.8309 36.2064C4.50826 36.3596 3.57421 37.4877 3.60273 38.7742C3.64551 40.6839 4.47439 41.2253 5.47083 42.4735C4.21236 42.08 2.89329 40.5777 1.03945 41.4359C2.09471 43.3961 5.9432 44.4632 7.92359 44.5955C11.0662 44.8062 13.7043 44.6617 14.7257 41.8468C15.355 38.1823 13.6455 37.2248 11.8291 35.6337C11.0822 34.9791 9.98776 34.0408 9.3817 33.3305C8.38526 32.1624 8.33892 31.3982 8.42626 29.8192C6.77207 29.5059 5.63125 31.6489 6.39418 33.2156C7.47439 35.437 9.35318 34.9426 9.92894 35.7712C9.61699 35.947 8.88259 35.6981 8.36566 35.9766C7.26227 36.5702 7.21058 38.3268 8.7596 39.3277C8.86655 38.1509 9.05906 37.5852 10.5742 37.4999C12.4726 37.3919 13.4423 38.9465 13.3211 40.3931C13.2391 41.3802 12.7043 42.2698 11.396 42.5953C9.29614 43.1176 7.49578 42.1497 6.41735 41.0825ZM84.519 45.0882C84.5243 44.9959 84.5403 44.9002 84.56 44.8062C84.2534 44.9333 83.8202 45.0238 83.4958 45.0882C83.8184 45.1544 84.2516 45.2449 84.56 45.3702C84.5403 45.278 84.5243 45.1805 84.519 45.0882ZM78.4102 45.0882C78.0234 44.989 77.0537 44.6617 76.756 44.4458C76.8826 44.5921 76.9468 44.8428 76.9539 45.0882C76.9468 45.3337 76.8826 45.5844 76.756 45.7306C77.0519 45.5147 78.0234 45.1892 78.4102 45.0882ZM73.2213 42.4909C72.0234 42.1932 70.6223 43.6398 68.2908 43.2673C69.5332 42.1444 71.9307 42.5622 72.6776 40.9972C73.2159 38.9448 71.7828 37.4006 70.5261 36.7861C70.4441 38.9082 70.2801 39.85 68.5528 41.1957C67.2427 42.0609 65.699 42.5657 65.5849 44.747C65.5724 44.9733 65.5724 45.2048 65.5849 45.4312C65.699 47.6124 67.2409 48.1173 68.5528 48.9825C70.2783 50.3282 70.4441 51.27 70.5261 53.392C71.7828 52.7775 73.2159 51.2334 72.6776 49.1809C71.9307 47.6159 69.5332 48.0337 68.2908 46.9109C70.6241 46.5383 72.0252 47.985 73.2213 47.6873C74.0573 47.4801 76.4352 45.9395 76.4548 45.0847C76.4726 44.27 74.0323 42.6928 73.2213 42.4909ZM69.3924 50.7895C69.2587 51.6251 69.0074 52.5373 68.8416 53.0474C69.0751 52.6278 69.51 52.3458 69.7115 52.123C69.7881 51.7939 69.519 51.0419 69.3924 50.7895ZM50.1036 73.9271C47.7186 75.2884 49.0858 80.0026 53.0822 79.9991C58.7703 79.9922 57.7507 71.2949 60.4352 66.5633C61.8113 64.1365 64.0198 62.6185 66.7881 61.4713C65.5261 61.5566 65.2124 61.48 64.9735 61.3373C64.8648 61.2729 67.2694 58.5223 66.9788 57.4151C63.92 63.0381 58.5706 66.5337 56.8238 67.5103C56.2052 67.8567 53.7952 69.0597 52.5439 69.4044C58.3389 69.6115 57.1856 67.4894 59.0252 66.9393C59.1464 68.3564 59.0858 69.7194 58.5849 70.7901C57.9735 72.0974 57.3639 72.1706 55.5457 72.087C55.6455 72.8338 57.1642 75.7845 53.9521 77.5149C52.8826 78.0912 51.6259 77.8945 50.7846 77.313C49.8683 76.6793 49.7881 75.6244 50.1036 73.9271ZM61.51 81.7174C62.1304 81.5189 65.7846 79.3185 66.453 78.8867C67.1696 78.4219 67.6544 78.0999 68.3621 77.5846C69.2979 76.9057 69.7917 76.5262 70.7329 75.6418C67.5261 76.7873 64.6812 75.5478 63.3585 73.1472C63.8648 74.4754 65.2177 75.7637 65.478 76.1101C64.8701 76.8482 64.3478 76.8674 63.6544 76.8952C63.7275 77.7552 64.1464 78.6308 63.7525 79.4455C63.4316 80.255 63.0395 79.926 62.6954 79.6562C62.3567 80.7146 62.1036 81.0941 61.51 81.7174ZM67.715 65.2281C65.8487 66.0532 64.4476 68.5096 65.4423 70.8179C66.453 73.1611 70.6633 73.4779 70.314 70.0276C69.592 71.0425 68.8719 71.6953 67.5903 71.1643C67.0074 70.9224 66.4209 70.1564 66.2409 69.3904C65.4815 66.1525 70.7507 64.2706 72.9878 67.6966C74.2017 69.5541 73.879 71.4934 73.1072 73.3979C75.4637 71.9094 75.1215 67.7558 73.7275 66.3561C72.346 64.9652 69.8986 64.201 67.715 65.2281ZM78.1339 55.2983C76.2284 53.6793 75.0983 53.124 74.6651 51.2229C74.4958 50.4813 74.4013 49.3707 74.7792 47.924C74.3086 48.3976 73.8808 48.5438 73.3657 48.69C73.5903 50.4256 73.7881 52.459 71.1321 53.8847C70.9735 53.9805 69.7899 54.5323 69.6259 54.5393C69.8665 53.8168 69.7311 53.6845 69.6829 52.9568C69.0894 53.8464 68.6972 54.4679 68.3068 55.3905C68.0074 56.0991 67.8915 56.6091 67.6829 57.3629C67.2676 59.586 66.6348 59.8715 65.8131 60.9978C68.9878 61.0465 69.4031 59.2204 69.535 56.489C69.9307 57.3664 69.6954 58.5154 70.4762 59.203C71.1678 59.8523 72.2337 60.1918 73.2712 59.9481C74.3781 59.6887 74.9521 58.7086 74.7596 57.9061C74.4762 56.7258 72.9075 55.8815 72.0038 57.9078C71.4601 56.543 72.5635 54.8927 74.3603 54.534C77.1018 53.9874 78.7845 56.1739 78.5279 58.4318C78.3942 59.6156 77.9289 60.9003 76.387 61.6419C73.4744 63.1094 68.4886 60.2666 63.699 64.0095C61.4976 65.5275 60.1518 67.8428 59.8077 70.0885C58.8505 73.7443 58.781 80.3786 53.2854 80.7686C50.3942 80.974 47.7685 78.8119 48.0163 75.9569C48.3193 72.4839 53.0876 71.5508 53.2302 73.9967C52.6562 73.8122 52.0858 73.229 51.2944 73.7425C50.8024 74.0611 50.5421 74.7627 50.6687 75.459C51.232 78.5333 56.8523 76.3242 54.7667 72.6145C53.8772 71.0338 52.2641 71.3384 51.3621 70.9067C52.7222 70.0311 54.7988 71.4725 56.4084 71.422C57.5956 71.3854 58.5582 70.5028 58.4459 68.3616C57.6776 68.8542 57.1161 69.7281 55.9575 69.9388C54.7703 70.1547 53.5903 69.9632 52.4049 70.0467C44.9592 70.5655 44.1482 79.0243 49.0626 81.78C55.0484 85.1381 60.592 81.1655 60.4887 74.7157C60.1874 72.698 61.0234 66.8279 63.5065 65.1584C62.5903 67.5364 61.3817 67.8358 61.1357 73.6242C61.0715 75.1283 61.2908 76.655 61.2177 78.1347C61.125 80.0235 60.51 80.8434 59.9022 81.7522C61.3086 81.5154 62.6954 79.8825 62.2088 78.6012L63.1357 79.4543C63.7881 78.2095 62.7097 76.8952 62.3746 75.466C63.2427 76.0596 63.4387 76.8116 64.5974 76.07C64.5493 75.9569 61.0751 72.6615 62.8986 69.1101C62.9949 70.3775 62.9575 71.4812 63.8986 72.8356C66.1749 76.7368 71.3835 76.1466 72.7453 72.651C73.7881 69.9806 72.4584 66.9776 70.0805 66.6068C68.0323 66.2882 66.9717 67.4529 66.8559 68.5792C66.7186 69.9162 67.8398 71.2218 69.1927 70.2904C70.0626 69.6602 69.9682 69.1276 69.1945 68.231C72.1678 68.6036 71.6633 73.7251 67.4904 73.2917C66.8042 73.2203 66.2213 72.8321 65.7115 72.4212C62.2106 69.6045 65.617 62.5855 71.8612 64.5039C75.2801 65.5553 75.289 68.1788 75.4405 70.6786C76.8095 70.4158 78.3425 68.5339 78.0145 66.7339C77.2837 64.8068 76.7043 64.5944 74.1179 63.8249C75.9361 63.9033 78.3888 64.5805 80.346 61.5671C80.5279 61.2467 80.7952 60.3572 80.8772 60.0299C81.2444 58.5832 79.1624 56.1722 78.1339 55.2983ZM67.4958 61.4226C69.0947 61.0796 73.1553 61.682 75.8862 61.0692C77.1428 60.7872 77.986 59.2065 77.9218 57.7372C77.8772 56.7327 77.2427 56.0225 76.5421 55.5385C75.3318 54.7029 73.4441 55.2182 72.7632 56.2679C73.7828 55.8553 75.0377 56.5482 75.2926 57.7598C75.7293 59.828 74.1624 61.0483 72.1767 60.7558C71.1001 60.5974 70.2765 60.143 69.7382 59.3718C69.4548 60.2649 68.7418 60.9874 67.4958 61.4226ZM78.6812 66.1577C79.2302 65.6006 80.5083 63.4576 80.6919 62.4305C80.658 62.4462 78.5368 64.4307 77.5207 64.4969C78.1036 65.2228 78.5546 65.9714 78.6812 66.1577ZM83.3157 55.3818C83.3853 55.2565 83.4441 54.6681 83.4031 53.9804C83.8309 53.9282 83.7257 53.7977 83.8576 53.5487C84.1001 52.7828 84.2712 51.6442 83.9468 50.84C83.4013 49.4873 81.9075 48.4045 80.6027 48.1834C78.8665 47.891 77.9129 48.7144 77.6633 49.6318C77.3443 50.8086 78.1535 52.2222 79.6081 51.9176C80.4922 51.733 80.699 51.3466 80.5439 49.9104C82.4797 49.691 84.8006 52.6435 82.1161 54.6768C82.5403 54.8439 82.9842 54.9658 83.3157 55.3818ZM83.6526 49.0956C85.4441 51.303 84.7382 53.1588 84.3229 53.6323C84.273 53.6897 84.2605 53.916 84.2391 53.9717C85.5617 53.8186 86.4958 52.6905 86.4673 51.404C86.4245 49.4943 85.5956 48.9529 84.5992 47.7047C85.8576 48.0981 87.1767 49.6005 89.0305 48.7422C87.9753 46.7821 84.1268 45.7149 82.1464 45.5826C79.0038 45.372 76.3657 45.5165 75.3443 48.3314C74.715 51.9959 76.4245 52.9534 78.2409 54.5445C78.9878 55.199 80.0822 56.1374 80.6883 56.8476C81.6847 58.0157 81.7311 58.78 81.6437 60.3589C83.2979 60.6723 84.4387 58.5293 83.6758 56.9625C82.5956 54.7412 80.7168 55.2356 80.1411 54.407C80.453 54.2311 81.1874 54.4801 81.7061 54.2015C82.8095 53.6079 82.8612 51.8514 81.3122 50.8504C81.2052 52.0272 81.0127 52.593 79.4976 52.6783C77.5992 52.7862 76.6295 51.2317 76.7507 49.785C76.8327 48.798 77.3674 47.9084 78.6758 47.5828C80.7756 47.0606 82.5742 48.0285 83.6526 49.0956ZM69.3924 39.3887C69.2587 38.5531 69.0074 37.6409 68.8416 37.1308C69.0751 37.5503 69.51 37.8324 69.7115 38.0552C69.7881 38.3842 69.519 39.1363 69.3924 39.3887ZM50.1036 16.2511C47.7186 14.8898 49.0858 10.1755 53.0822 10.179C58.7703 10.186 57.7507 18.8833 60.4352 23.6149C61.8113 26.0416 64.0198 27.5596 66.7881 28.7068C65.5261 28.6215 65.2124 28.6999 64.9735 28.8409C64.8648 28.9053 67.2694 31.6558 66.9788 32.763C63.92 27.1401 58.5706 23.6445 56.8238 22.6679C56.2052 22.3214 53.7952 21.1185 52.5439 20.7738C58.3389 20.5667 57.1856 22.6887 59.0252 23.2388C59.1464 21.8218 59.0858 20.4587 58.5849 19.3881C57.9735 18.0807 57.3639 18.0076 55.5457 18.0912C55.6455 17.3443 57.1642 14.3936 53.9521 12.6632C52.8826 12.087 51.6259 12.2854 50.7846 12.8651C49.8683 13.4988 49.7881 14.5538 50.1036 16.2511ZM61.51 8.46081C62.1304 8.65926 65.7846 10.8597 66.453 11.2914C67.1696 11.7562 67.6544 12.0783 68.3621 12.5936C69.2979 13.2725 69.7917 13.652 70.7329 14.5364C67.5261 13.3909 64.6812 14.6304 63.3585 17.031C63.8648 15.7027 65.2177 14.4145 65.478 14.0681C64.8701 13.33 64.3478 13.3108 63.6544 13.283C63.7275 12.423 64.1464 11.5473 63.7525 10.7326C63.4316 9.92312 63.0395 10.2521 62.6954 10.522C62.3567 9.46354 62.1036 9.08403 61.51 8.46081ZM67.715 24.9501C65.8487 24.1249 64.4476 21.6686 65.4423 19.3602C66.453 17.0171 70.6633 16.7002 70.314 20.1506C69.592 19.1357 68.8719 18.4829 67.5903 19.0138C67.0074 19.2558 66.4209 20.0218 66.2409 20.7877C65.4815 24.0257 70.7507 25.9076 72.9878 22.4816C74.2017 20.6241 73.879 18.6848 73.1072 16.7803C75.4637 18.2687 75.1215 22.4224 73.7275 23.822C72.346 25.2112 69.8986 25.9772 67.715 24.9501ZM78.1339 34.8799C76.2284 36.4989 75.0983 37.0542 74.6651 38.9552C74.4958 39.6968 74.4013 40.8075 74.7792 42.2541C74.3086 41.7806 73.8808 41.6344 73.3657 41.4881C73.5903 39.7525 73.7881 37.7192 71.1321 36.2935C70.9735 36.1977 69.7899 35.6459 69.6259 35.6389C69.8665 36.3613 69.7311 36.4937 69.6829 37.2213C69.0894 36.3318 68.6972 35.7103 68.3068 34.7876C68.0074 34.0791 67.8915 33.569 67.6829 32.8152C67.2676 30.5922 66.6348 30.3067 65.8131 29.1804C68.9878 29.1316 69.4031 30.9578 69.535 33.6891C69.9307 32.8118 69.6954 31.6628 70.4762 30.9752C71.1678 30.3258 72.2337 29.9864 73.2712 30.2301C74.3781 30.4895 74.9521 31.4696 74.7596 32.2721C74.4762 33.4524 72.9075 34.2967 72.0038 32.2704C71.4601 33.6352 72.5635 35.2855 74.3603 35.6441C77.1018 36.1907 78.7845 34.0042 78.5279 31.7464C78.3942 30.5626 77.9289 29.2778 76.387 28.5362C73.4744 27.0687 68.4886 29.9115 63.699 26.1687C61.4976 24.6507 60.1518 22.3354 59.8077 20.0897C58.8505 16.4339 58.781 9.79952 53.2854 9.40957C50.3942 9.20415 47.7685 11.3663 48.0163 14.2213C48.3193 17.6943 53.0876 18.6273 53.2302 16.1815C52.6562 16.366 52.0858 16.9492 51.2944 16.4356C50.8024 16.1171 50.5421 15.4155 50.6687 14.7192C51.232 11.6466 56.8523 13.8539 54.7667 17.5637C53.8772 19.1444 52.2641 18.8397 51.3621 19.2715C52.7222 20.1471 54.7988 18.7057 56.4084 18.7562C57.5956 18.7927 58.5582 19.6753 58.4459 21.8166C57.6776 21.3239 57.1161 20.45 55.9575 20.2394C54.7703 20.0235 53.5903 20.215 52.4049 20.1314C44.9592 19.6127 44.1482 11.1539 49.0626 8.39814C55.0484 5.04005 60.592 9.01266 60.4887 15.4625C60.1874 17.4801 61.0234 23.3503 63.5065 25.0197C62.5903 22.6417 61.3817 22.3423 61.1357 16.554C61.0715 15.0499 61.2908 13.5232 61.2177 12.0435C61.125 10.1547 60.51 9.33471 59.9022 8.42599C61.3086 8.66275 62.6954 10.2957 62.2088 11.5769L63.1357 10.7239C63.7881 11.9686 62.7097 13.283 62.3746 14.7122C63.2427 14.1186 63.4387 13.3665 64.5974 14.1081C64.5493 14.2213 61.0751 17.5167 62.8986 21.068C62.9949 19.8007 62.9575 18.697 63.8986 17.3426C66.1749 13.4414 71.3835 14.0315 72.7453 17.5271C73.7881 20.1976 72.4584 23.2006 70.0805 23.5714C68.0323 23.8899 66.9717 22.7253 66.8559 21.599C66.7186 20.262 67.8398 18.9564 69.1927 19.8877C70.0626 20.5179 69.9682 21.0506 69.1945 21.9471C72.1678 21.5746 71.6633 16.453 67.4904 16.8865C66.8042 16.9579 66.2213 17.3461 65.7115 17.7569C62.2106 20.5736 65.617 27.5927 71.8612 25.6743C75.2801 24.6228 75.289 21.9994 75.4405 19.4995C76.8095 19.7624 78.3425 21.6442 78.0145 23.4443C77.2837 25.3714 76.7043 25.5838 74.1179 26.3532C75.9361 26.2749 78.3888 25.5977 80.346 28.6111C80.5279 28.9314 80.7952 29.821 80.8772 30.1483C81.2444 31.5949 79.1624 34.006 78.1339 34.8799ZM67.4958 28.7538C69.0947 29.0968 73.1553 28.4945 75.8862 29.1072C77.1428 29.3893 77.986 30.9699 77.9218 32.4392C77.8772 33.4437 77.2427 34.154 76.5421 34.6379C75.3318 35.4735 73.4441 34.9582 72.7632 33.9085C73.7828 34.3211 75.0377 33.6282 75.2926 32.4166C75.7293 30.3485 74.1624 29.1281 72.1767 29.4206C71.1001 29.579 70.2765 30.0334 69.7382 30.8046C69.4548 29.9133 68.7418 29.1891 67.4958 28.7538ZM78.6812 24.0205C79.2302 24.5776 80.5083 26.7205 80.6919 27.7476C80.658 27.732 78.5368 25.7474 77.5207 25.6813C78.1036 24.9553 78.5546 24.2068 78.6812 24.0205ZM83.3157 34.7946C83.3853 34.9199 83.4441 35.5083 83.4031 36.196C83.8309 36.2482 83.7257 36.3788 83.8576 36.6277C84.1001 37.3937 84.2712 38.5322 83.9468 39.3365C83.4013 40.6891 81.9075 41.7719 80.6027 41.993C78.8665 42.2854 77.9129 41.462 77.6633 40.5446C77.3443 39.3678 78.1535 37.9542 79.6081 38.2589C80.4922 38.4434 80.699 38.8299 80.5439 40.2661C82.4797 40.4854 84.8006 37.5329 82.1161 35.4996C82.5403 35.3342 82.9842 35.2124 83.3157 34.7946ZM83.6526 41.0825C85.4441 38.8751 84.7382 37.0194 84.3229 36.5459C84.273 36.4884 84.2605 36.2621 84.2391 36.2064C85.5617 36.3596 86.4958 37.4877 86.4673 38.7742C86.4245 40.6839 85.5956 41.2253 84.5992 42.4735C85.8576 42.08 87.1767 40.5777 89.0305 41.4359C87.9753 43.3961 84.1268 44.4632 82.1464 44.5955C79.0038 44.8062 76.3657 44.6617 75.3443 41.8468C74.715 38.1823 76.4245 37.2248 78.2409 35.6337C78.9878 34.9791 80.0822 34.0408 80.6883 33.3305C81.6847 32.1624 81.7311 31.3982 81.6437 29.8192C83.2979 29.5059 84.4387 31.6489 83.6758 33.2156C82.5956 35.437 80.7168 34.9426 80.1411 35.7712C80.453 35.947 81.1874 35.6981 81.7061 35.9766C82.8095 36.5702 82.8612 38.3268 81.3122 39.3277C81.2052 38.1509 81.0127 37.5852 79.4976 37.4999C77.5992 37.3919 76.6295 38.9465 76.7507 40.3931C76.8327 41.3802 77.3674 42.2698 78.6758 42.5953C80.7756 43.1176 82.5742 42.1497 83.6526 41.0825Z" fill="#4F443A"/>
	<path d="M30.3657 33.3027C30.847 33.3741 31.3051 33.4141 31.7382 33.4263C32.1714 33.4385 32.6295 33.4437 33.1108 33.4437C33.617 33.4437 34.1339 33.4385 34.6651 33.4263C35.1945 33.4141 35.7133 33.3741 36.2195 33.3027C36.7257 34.5265 37.2605 35.7382 37.8273 36.9376C38.3942 38.1371 38.9664 39.3261 39.5439 40.5011L45.109 51.794L50.601 40.5011C51.1304 39.4183 51.715 38.2433 52.3532 36.9724C52.9913 35.7016 53.4922 34.4795 53.8523 33.3027C54.3585 33.3741 54.8648 33.4141 55.3692 33.4263C55.8755 33.4385 56.3817 33.4437 56.8862 33.4437C57.3674 33.4437 57.838 33.4385 58.2961 33.4263C58.7542 33.4141 59.223 33.3741 59.7061 33.3027V34.5022H58.9842C58.0448 34.5492 57.3764 34.7024 56.9788 34.9618C56.5813 35.2211 56.3835 35.82 56.3835 36.7618V37.6078L56.7453 50.1698L56.8184 52.2867C56.8184 52.9447 56.8362 53.4861 56.8719 53.9091C56.9075 54.3322 57.0163 54.6681 57.1963 54.9153C57.3764 55.1625 57.6669 55.3331 58.0626 55.4272C58.4601 55.5212 59.0074 55.5803 59.7061 55.603V56.8738C58.2605 56.7328 56.7917 56.6614 55.2979 56.6614C53.8291 56.6614 52.3354 56.7328 50.8166 56.8738V55.603C52.0216 55.556 52.8166 55.3436 53.2017 54.9676C53.5867 54.5915 53.7792 53.8621 53.7792 52.7793V51.5085L53.6348 37.8881L46.6241 52.4277C46.2872 53.1327 45.9503 53.8273 45.6116 54.5097C45.2747 55.1921 44.986 55.9094 44.7453 56.6614H44.1678L35.1339 38.1022L34.9165 49.6058V51.935C34.9165 52.452 34.9343 52.9343 34.9699 53.3817C35.0056 53.8291 35.109 54.2173 35.2765 54.5463C35.4441 54.8753 35.7097 55.1347 36.0715 55.3227C36.4334 55.5107 36.9396 55.6047 37.5885 55.6047H37.8773V56.8755C37.2266 56.8285 36.5707 56.7815 35.9076 56.7345C35.2445 56.6875 34.576 56.6631 33.9022 56.6631C32.6972 56.6631 31.5172 56.7345 30.3603 56.8755V55.6047C30.7222 55.5577 31.1126 55.5229 31.535 55.4985C31.9557 55.4741 32.2872 55.2983 32.5279 54.9693C32.6972 54.7569 32.8238 54.4923 32.9076 54.1755C32.9913 53.8586 33.0466 53.5227 33.0698 53.1693C33.0929 52.8159 33.1125 52.4642 33.1232 52.1108C33.1357 51.7574 33.1535 51.4632 33.1767 51.2282V50.0288L33.5386 39.3017C33.5867 38.9257 33.6224 38.5375 33.6473 38.1371C33.6723 37.7367 33.683 37.3258 33.683 36.9028C33.683 35.9854 33.5029 35.3552 33.1411 35.0157C32.7792 34.6745 32.1411 34.5039 31.2266 34.5039H30.3603V33.3027H30.3657Z" fill="#4F443A"/>
</svg>
